<svg xmlns="http://www.w3.org/2000/svg" viewBox="0 0 2130.28 2347.53"><defs><style>.cls-1{fill:#222;}</style></defs><title>nodejs</title><g id="Layer_2" data-name="Layer 2"><g id="Layer_1-2" data-name="Layer 1"><path class="cls-1" d="M969,25c58.21-33.31,134-33.46,192.18,0Q1600.09,273,2039,520.87c55,31,91.83,92.22,91.27,155.62v994.67c.41,66-40,128.72-98.08,159q-437.43,246.63-874.67,493.45c-59.41,34-136.75,31.35-194.31-5.4q-131.15-76-262.44-151.75c-17.87-10.65-38-19.13-50.63-36.45,11.16-15,31.1-16.91,47.3-23.47,36.49-11.61,70-30.23,103.54-48.31,8.48-5.8,18.83-3.58,26.95,1.61,74.77,42.87,148.87,87,223.88,129.44,16,9.24,32.21-3,45.89-10.65Q1527,1936,1956.52,1694c10.6-5.1,16.46-16.36,15.6-28q.3-492.18.1-984.42a30.76,30.76,0,0,0-18.33-30.68Q1518,405.42,1082.25,159.63a30.25,30.25,0,0,0-34.23,0Q612.18,405.2,176.49,651.05c-11.88,5.4-19.84,17.32-18.43,30.54q.08,492.18,0,984.47a27.83,27.83,0,0,0,15.8,27.62q116.31,66,232.77,131.44c43.71,23.53,97.37,37.51,145.53,19.48,42.5-15.24,72.29-58.6,71.48-103.73.4-326.2-.2-652.46.3-978.61-1.06-14.48,12.67-26.45,26.75-25.08,37.26-.26,74.57-.51,111.82.1,15.55-.36,26.25,15.24,24.33,29.83-.15,328.27.4,656.55-.25,984.82.1,87.48-35.84,182.68-116.77,225.49-99.69,51.64-222.91,40.69-321.4-8.83C263.15,1926,181.79,1875.81,98,1830.22c-58.2-30.13-98.44-93.08-98-159V676.49C-.6,611.78,37.66,549.43,94.4,518.89Q531.77,272.06,969,25Z"/><path class="cls-1" d="M1223.39,714.06c127.17-8.19,263.31-4.85,377.74,57.8,88.6,48,137.72,148.76,139.29,247.19-2.48,13.28-16.36,20.6-29,19.69-36.9,0-73.8.5-110.7-.25-15.65.6-24.75-13.83-26.71-27.67-10.6-47.09-36.29-93.74-80.62-116.45-68-34.07-146.95-32.36-221.15-31.65-54.17,2.88-112.42,7.57-158.31,39.42-35.23,24.13-45.94,72.84-33.36,112.07,11.86,28.17,44.37,37.26,71,45.63,153.26,40.09,315.66,36.1,466,88.85,62.24,21.5,123.13,63.3,144.43,128.47,27.87,87.33,15.65,191.73-46.49,261.84-50.39,57.7-123.78,89.1-197,106.16-97.38,21.71-198.43,22.26-297.32,12.62-93-10.6-189.76-35-261.55-98.39-61.38-53.3-91.36-136.34-88.39-216.5.71-13.54,14.19-23,27.16-21.86,37.15-.3,74.31-.4,111.47,0,14.84-1.06,25.84,11.76,26.6,25.75,6.86,44.87,23.72,92,62.85,118.57,75.51,48.72,170.27,45.38,256.73,46.75,71.64-3.18,152-4.14,210.51-51.49,30.84-27,40-72.19,31.65-111.06-9-32.81-43.36-48.1-72.84-58.1C1374,1243.64,1209.81,1261,1060,1206.89c-60.83-21.5-119.64-62.14-143-124.63-32.61-88.44-17.67-197.83,51-265.58,66.94-67.39,163.56-93.34,255.43-102.63Z"/></g></g></svg>