<svg xmlns="http://www.w3.org/2000/svg" xmlns:xlink="http://www.w3.org/1999/xlink" width="500" zoomAndPan="magnify" viewBox="0 0 375 374.999991" height="500" preserveAspectRatio="xMidYMid meet" version="1.0"><defs><g/><clipPath id="b1da43db23"><path d="M 72.890625 142.910156 L 309.621094 142.910156 L 309.621094 273.410156 L 72.890625 273.410156 Z M 72.890625 142.910156 " clip-rule="nonzero"/></clipPath></defs><g fill="#ffffff" fill-opacity="1"><g transform="translate(94.272866, 195.697319)"><g><path d="M 4.019531 -65.75 C 7.0625 -82.066406 16.4375 -87.183594 29.464844 -87.183594 L 38.355469 -87.183594 L 38.355469 -8.15625 C 38.355469 -2.558594 35.796875 -1.582031 29.953125 -1.582031 L 29.953125 0 L 60.273438 0 L 60.273438 -1.582031 C 54.429688 -1.582031 51.75 -2.558594 51.75 -8.15625 L 51.75 -87.183594 L 60.515625 -87.183594 C 73.667969 -87.183594 83.042969 -82.066406 86.085938 -65.75 L 87.667969 -65.75 L 83.652344 -88.765625 L 6.453125 -88.765625 L 2.433594 -65.75 Z M 4.019531 -65.75 "/></g></g></g><g clip-path="url(#b1da43db23)"><path fill="#ffffff" d="M 268.417969 214.847656 C 269.863281 215.269531 271.351562 215.59375 272.867188 215.808594 C 274.359375 216.019531 275.882812 216.132812 277.417969 216.132812 C 286.296875 216.132812 294.335938 212.53125 300.15625 206.707031 C 305.972656 200.886719 309.574219 192.84375 309.574219 183.960938 C 309.574219 175.078125 305.972656 167.03125 300.15625 161.210938 C 294.335938 155.386719 286.296875 151.789062 277.417969 151.789062 C 272.484375 151.789062 267.808594 152.902344 263.625 154.894531 C 259.28125 156.960938 255.476562 159.972656 252.46875 163.667969 C 243.371094 174.699219 235.960938 186.273438 228.554688 197.839844 C 213.296875 221.675781 198.054688 245.472656 168.269531 264.066406 C 165.546875 265.550781 162.703125 266.84375 159.761719 267.921875 C 152.941406 270.421875 145.570312 271.789062 137.878906 271.789062 C 120.320312 271.789062 104.421875 264.664062 92.914062 253.152344 C 81.40625 241.636719 74.289062 225.730469 74.289062 208.164062 C 74.289062 190.589844 81.410156 174.683594 92.914062 163.171875 C 103.800781 152.28125 118.613281 145.320312 135.046875 144.597656 C 133.753906 145.535156 132.910156 147.054688 132.910156 148.777344 C 132.910156 151.621094 135.214844 153.925781 138.058594 153.925781 C 140.902344 153.925781 143.207031 151.621094 143.207031 148.777344 C 143.207031 146.300781 141.460938 144.230469 139.132812 143.734375 L 139.144531 142.925781 L 137.882812 142.914062 C 119.875 142.914062 103.570312 150.214844 91.769531 162.023438 C 79.96875 173.832031 72.667969 190.144531 72.667969 208.164062 C 72.667969 226.183594 79.96875 242.496094 91.769531 254.304688 C 103.570312 266.113281 119.875 273.417969 137.882812 273.417969 C 145.765625 273.417969 153.324219 272.015625 160.324219 269.449219 C 167.574219 266.789062 174.226562 262.878906 180.011719 257.976562 C 203.15625 240.515625 216.53125 219.632812 229.921875 198.722656 C 237.308594 187.183594 244.699219 175.640625 253.722656 164.699219 L 253.101562 164.183594 L 253.726562 164.695312 C 256.578125 161.191406 260.195312 158.328125 264.320312 156.367188 C 268.285156 154.476562 272.730469 153.417969 277.421875 153.417969 C 285.855469 153.417969 293.488281 156.835938 299.011719 162.363281 C 304.539062 167.894531 307.957031 175.53125 307.957031 183.96875 C 307.957031 192.402344 304.539062 200.039062 299.011719 205.570312 C 293.488281 211.097656 285.855469 214.515625 277.421875 214.515625 C 275.945312 214.515625 274.5 214.410156 273.09375 214.214844 C 271.648438 214.007812 270.238281 213.703125 268.871094 213.304688 L 268.421875 214.859375 Z M 268.417969 214.847656 " fill-opacity="1" fill-rule="nonzero"/></g><g fill="#ffffff" fill-opacity="1"><g transform="translate(85.561765, 234.664767)"><g><path d="M 0.222656 -6.882812 L 2.0625 -6.882812 L 2.0625 -0.0234375 L 2.84375 -0.0234375 L 2.84375 -6.882812 L 4.6875 -6.882812 L 4.6875 -7.609375 L 0.222656 -7.609375 Z M 0.222656 -6.882812 "/></g></g></g><g fill="#ffffff" fill-opacity="1"><g transform="translate(98.414934, 234.664767)"><g><path d="M 2.0625 -2.789062 L 3.449219 -6.28125 L 4.820312 -2.789062 Z M 6.773438 0 L 3.449219 -8.109375 L 0.113281 0 L 0.960938 0 L 1.773438 -2.0625 L 5.109375 -2.0625 L 5.925781 0 Z M 6.773438 0 "/></g></g></g><g fill="#ffffff" fill-opacity="1"><g transform="translate(113.241932, 234.664767)"><g><path d="M 7.519531 -3.816406 C 7.519531 -2.945312 7.207031 -2.210938 6.605469 -1.605469 C 5.992188 -0.992188 5.253906 -0.691406 4.394531 -0.691406 C 3.535156 -0.691406 2.800781 -0.992188 2.199219 -1.605469 C 1.585938 -2.210938 1.28125 -2.945312 1.28125 -3.816406 C 1.28125 -4.664062 1.585938 -5.398438 2.199219 -6.011719 C 2.800781 -6.617188 3.535156 -6.929688 4.394531 -6.929688 C 5.253906 -6.929688 5.992188 -6.617188 6.605469 -6.011719 C 7.207031 -5.398438 7.519531 -4.664062 7.519531 -3.816406 Z M 8.300781 -3.816406 C 8.300781 -4.351562 8.1875 -4.851562 7.988281 -5.332031 C 7.789062 -5.800781 7.507812 -6.214844 7.152344 -6.570312 C 6.792969 -6.917969 6.382812 -7.195312 5.914062 -7.398438 C 5.433594 -7.597656 4.929688 -7.710938 4.394531 -7.710938 C 3.859375 -7.710938 3.347656 -7.597656 2.878906 -7.398438 C 2.410156 -7.195312 1.996094 -6.917969 1.640625 -6.570312 C 1.28125 -6.214844 1.003906 -5.800781 0.804688 -5.332031 C 0.601562 -4.851562 0.503906 -4.351562 0.503906 -3.816406 C 0.503906 -3.28125 0.601562 -2.765625 0.804688 -2.296875 C 1.003906 -1.820312 1.28125 -1.40625 1.640625 -1.046875 C 1.996094 -0.691406 2.410156 -0.414062 2.878906 -0.210938 C 3.347656 -0.0117188 3.859375 0.0898438 4.394531 0.0898438 C 4.929688 0.0898438 5.433594 -0.0117188 5.914062 -0.210938 C 6.382812 -0.414062 6.792969 -0.691406 7.152344 -1.046875 C 7.507812 -1.40625 7.789062 -1.820312 7.988281 -2.296875 C 8.1875 -2.765625 8.300781 -3.28125 8.300781 -3.816406 Z M 8.300781 -3.816406 "/></g></g></g><g fill="#ffffff" fill-opacity="1"><g transform="translate(129.986993, 234.664767)"><g><path d="M 6.324219 -2.511719 L 6.324219 -7.585938 L 5.542969 -7.585938 L 5.542969 -2.398438 C 5.542969 -2.085938 5.488281 -1.828125 5.378906 -1.617188 C 5.054688 -0.992188 4.429688 -0.679688 3.503906 -0.679688 C 2.902344 -0.679688 2.421875 -0.8125 2.0625 -1.082031 C 1.652344 -1.382812 1.449219 -1.820312 1.449219 -2.398438 L 1.449219 -7.585938 L 0.667969 -7.585938 L 0.667969 -2.511719 C 0.667969 -1.683594 0.9375 -1.039062 1.472656 -0.570312 C 1.976562 -0.121094 2.65625 0.101562 3.503906 0.101562 C 4.339844 0.101562 5.007812 -0.121094 5.523438 -0.570312 C 6.058594 -1.039062 6.324219 -1.683594 6.324219 -2.511719 Z M 6.324219 -2.511719 "/></g></g></g><g fill="#ffffff" fill-opacity="1"><g transform="translate(144.925506, 234.664767)"><g><path d="M 2.0625 -2.789062 L 3.449219 -6.28125 L 4.820312 -2.789062 Z M 6.773438 0 L 3.449219 -8.109375 L 0.113281 0 L 0.960938 0 L 1.773438 -2.0625 L 5.109375 -2.0625 L 5.925781 0 Z M 6.773438 0 "/></g></g></g><g fill="#ffffff" fill-opacity="1"><g transform="translate(159.752504, 234.664767)"><g><path d="M 1.617188 -3.75 L 1.617188 -6.839844 L 3.378906 -6.839844 C 3.839844 -6.839844 4.207031 -6.695312 4.484375 -6.402344 C 4.753906 -6.113281 4.898438 -5.757812 4.898438 -5.3125 C 4.898438 -4.863281 4.753906 -4.496094 4.460938 -4.195312 C 4.171875 -3.894531 3.816406 -3.75 3.378906 -3.75 Z M 5.679688 -5.300781 C 5.679688 -5.945312 5.433594 -6.503906 4.964844 -6.941406 C 4.507812 -7.363281 3.9375 -7.585938 3.269531 -7.585938 L 0.835938 -7.585938 L 0.835938 0 L 1.617188 0 L 1.617188 -3 L 2.519531 -3 L 4.753906 0 L 5.800781 0 L 3.457031 -3 C 4.050781 -3.035156 4.550781 -3.246094 4.964844 -3.636719 C 5.433594 -4.070312 5.679688 -4.628906 5.679688 -5.300781 Z M 5.679688 -5.300781 "/></g></g></g><g fill="#ffffff" fill-opacity="1"><g transform="translate(173.765433, 234.664767)"><g><path d="M 6.726562 -3.792969 C 6.726562 -4.339844 6.617188 -4.84375 6.414062 -5.3125 C 6.214844 -5.777344 5.933594 -6.179688 5.589844 -6.515625 C 5.234375 -6.851562 4.820312 -7.105469 4.351562 -7.296875 C 3.871094 -7.484375 3.359375 -7.585938 2.824219 -7.585938 L 0.835938 -7.585938 L 0.835938 0 L 2.824219 0 C 3.359375 0 3.871094 -0.0898438 4.351562 -0.277344 C 4.820312 -0.46875 5.234375 -0.738281 5.589844 -1.070312 C 5.933594 -1.40625 6.214844 -1.796875 6.414062 -2.265625 C 6.617188 -2.734375 6.726562 -3.234375 6.726562 -3.792969 Z M 5.96875 -3.792969 C 5.96875 -2.921875 5.65625 -2.199219 5.054688 -1.628906 C 4.453125 -1.058594 3.714844 -0.78125 2.84375 -0.78125 L 1.617188 -0.78125 L 1.617188 -6.804688 L 2.84375 -6.804688 C 3.714844 -6.804688 4.453125 -6.515625 5.054688 -5.957031 C 5.65625 -5.378906 5.96875 -4.652344 5.96875 -3.792969 Z M 5.96875 -3.792969 "/></g></g></g><g fill="#ffffff" fill-opacity="1"><g transform="translate(188.938122, 234.664767)"><g><path d="M 2.0625 -2.789062 L 3.449219 -6.28125 L 4.820312 -2.789062 Z M 6.773438 0 L 3.449219 -8.109375 L 0.113281 0 L 0.960938 0 L 1.773438 -2.0625 L 5.109375 -2.0625 L 5.925781 0 Z M 6.773438 0 "/></g></g></g><g fill="#ffffff" fill-opacity="1"><g transform="translate(203.76512, 234.664767)"><g/></g></g><g fill="#ffffff" fill-opacity="1"><g transform="translate(214.722522, 234.664767)"><g><path d="M 2.0625 -2.789062 L 3.449219 -6.28125 L 4.820312 -2.789062 Z M 6.773438 0 L 3.449219 -8.109375 L 0.113281 0 L 0.960938 0 L 1.773438 -2.0625 L 5.109375 -2.0625 L 5.925781 0 Z M 6.773438 0 "/></g></g></g><g fill="#ffffff" fill-opacity="1"><g transform="translate(229.549513, 234.664767)"><g><path d="M 3.769531 -3.570312 L 6.636719 -7.585938 L 5.644531 -7.585938 L 3.378906 -4.339844 L 1.117188 -7.585938 L 0.113281 -7.585938 L 2.988281 -3.558594 L 2.988281 0 L 3.769531 0 Z M 3.769531 -3.570312 "/></g></g></g><g fill="#ffffff" fill-opacity="1"><g transform="translate(244.242686, 234.664767)"><g><path d="M 7.519531 -3.816406 C 7.519531 -2.945312 7.207031 -2.210938 6.605469 -1.605469 C 5.992188 -0.992188 5.253906 -0.691406 4.394531 -0.691406 C 3.535156 -0.691406 2.800781 -0.992188 2.199219 -1.605469 C 1.585938 -2.210938 1.28125 -2.945312 1.28125 -3.816406 C 1.28125 -4.664062 1.585938 -5.398438 2.199219 -6.011719 C 2.800781 -6.617188 3.535156 -6.929688 4.394531 -6.929688 C 5.253906 -6.929688 5.992188 -6.617188 6.605469 -6.011719 C 7.207031 -5.398438 7.519531 -4.664062 7.519531 -3.816406 Z M 8.300781 -3.816406 C 8.300781 -4.351562 8.1875 -4.851562 7.988281 -5.332031 C 7.789062 -5.800781 7.507812 -6.214844 7.152344 -6.570312 C 6.792969 -6.917969 6.382812 -7.195312 5.914062 -7.398438 C 5.433594 -7.597656 4.929688 -7.710938 4.394531 -7.710938 C 3.859375 -7.710938 3.347656 -7.597656 2.878906 -7.398438 C 2.410156 -7.195312 1.996094 -6.917969 1.640625 -6.570312 C 1.28125 -6.214844 1.003906 -5.800781 0.804688 -5.332031 C 0.601562 -4.851562 0.503906 -4.351562 0.503906 -3.816406 C 0.503906 -3.28125 0.601562 -2.765625 0.804688 -2.296875 C 1.003906 -1.820312 1.28125 -1.40625 1.640625 -1.046875 C 1.996094 -0.691406 2.410156 -0.414062 2.878906 -0.210938 C 3.347656 -0.0117188 3.859375 0.0898438 4.394531 0.0898438 C 4.929688 0.0898438 5.433594 -0.0117188 5.914062 -0.210938 C 6.382812 -0.414062 6.792969 -0.691406 7.152344 -1.046875 C 7.507812 -1.40625 7.789062 -1.820312 7.988281 -2.296875 C 8.1875 -2.765625 8.300781 -3.28125 8.300781 -3.816406 Z M 8.300781 -3.816406 "/></g></g></g><g fill="#ffffff" fill-opacity="1"><g transform="translate(260.987742, 234.664767)"><g><path d="M 6.324219 -2.511719 L 6.324219 -7.585938 L 5.542969 -7.585938 L 5.542969 -2.398438 C 5.542969 -2.085938 5.488281 -1.828125 5.378906 -1.617188 C 5.054688 -0.992188 4.429688 -0.679688 3.503906 -0.679688 C 2.902344 -0.679688 2.421875 -0.8125 2.0625 -1.082031 C 1.652344 -1.382812 1.449219 -1.820312 1.449219 -2.398438 L 1.449219 -7.585938 L 0.667969 -7.585938 L 0.667969 -2.511719 C 0.667969 -1.683594 0.9375 -1.039062 1.472656 -0.570312 C 1.976562 -0.121094 2.65625 0.101562 3.503906 0.101562 C 4.339844 0.101562 5.007812 -0.121094 5.523438 -0.570312 C 6.058594 -1.039062 6.324219 -1.683594 6.324219 -2.511719 Z M 6.324219 -2.511719 "/></g></g></g><g fill="#ffffff" fill-opacity="1"><g transform="translate(275.926262, 234.664767)"><g><path d="M 5.789062 -2.109375 C 5.789062 -2.644531 5.65625 -3.101562 5.398438 -3.457031 C 5.132812 -3.816406 4.773438 -4.0625 4.339844 -4.183594 C 4.597656 -4.296875 4.820312 -4.496094 4.988281 -4.796875 C 5.066406 -4.929688 5.121094 -5.066406 5.164062 -5.210938 C 5.210938 -5.355469 5.234375 -5.554688 5.234375 -5.8125 C 5.234375 -6.058594 5.164062 -6.316406 5.054688 -6.558594 C 4.71875 -7.242188 3.992188 -7.585938 2.890625 -7.585938 L 0.835938 -7.585938 L 0.835938 0 L 3.15625 0 C 3.925781 0 4.539062 -0.167969 5.007812 -0.523438 C 5.242188 -0.703125 5.433594 -0.9375 5.578125 -1.226562 C 5.710938 -1.507812 5.789062 -1.796875 5.789062 -2.109375 Z M 4.453125 -5.691406 C 4.453125 -5.277344 4.328125 -4.976562 4.082031 -4.773438 C 3.839844 -4.574219 3.515625 -4.472656 3.113281 -4.472656 L 1.617188 -4.472656 L 1.617188 -6.839844 L 2.890625 -6.839844 C 3.925781 -6.839844 4.453125 -6.449219 4.453125 -5.691406 Z M 5.007812 -2.265625 C 5.007812 -1.808594 4.851562 -1.4375 4.539062 -1.160156 C 4.238281 -0.882812 3.847656 -0.746094 3.378906 -0.746094 L 1.617188 -0.746094 L 1.617188 -3.691406 L 3.503906 -3.691406 C 3.894531 -3.691406 4.238281 -3.558594 4.539062 -3.292969 C 4.675781 -3.167969 4.785156 -3.023438 4.875 -2.855469 C 4.964844 -2.675781 5.007812 -2.488281 5.007812 -2.265625 Z M 5.007812 -2.265625 "/></g></g></g><g fill="#ffffff" fill-opacity="1"><g transform="translate(181.470959, 215.343091)"><g><path d="M 22.597656 0 L 22.597656 -1.71875 C 17.046875 -1.71875 13.082031 -4.890625 15.460938 -10.570312 L 24.183594 -31.582031 L 62.242188 -31.582031 L 69.773438 -13.214844 C 72.417969 -6.871094 72.023438 -1.71875 65.148438 -1.71875 L 61.582031 -1.71875 L 61.582031 0 L 98.714844 0 L 98.714844 -1.71875 C 92.109375 -1.71875 88.011719 -4.625 84.3125 -13.347656 L 49.554688 -96.335938 L 26.429688 -96.335938 L 26.429688 -94.621094 C 31.714844 -94.621094 36.472656 -93.296875 38.585938 -88.011719 L 42.289062 -79.027344 L 13.480469 -10.042969 C 11.496094 -5.285156 6.34375 -1.71875 1.980469 -1.71875 L 1.980469 0 Z M 43.214844 -77.042969 L 61.449219 -33.300781 L 24.976562 -33.300781 Z M 43.214844 -77.042969 "/></g></g></g></svg>